<?xml version="1.0" encoding="utf-8"?>
<svg xmlns="http://www.w3.org/2000/svg" style="margin: auto; background: rgb(255, 255, 255); display: block; shape-rendering: auto;" width="280" height="127" preserveAspectRatio="xMidYMid">
<style type="text/css">
  text {
    text-anchor: middle; font-size: 64px; opacity: 0;
  }
</style>
<g style="transform-origin:140px 63.5px;transform:scale(1)">
<g transform="translate(140,63.5)">
  <g transform="translate(0,0)"><g class="path" style="transform: matrix(1, 0, 0, 1, 0, 0); transform-origin: -94.265px -6.24049px; animation: 1s linear -0.6s infinite normal forwards running bounce-44f890db-e91e-44a7-8700-7dec1db46bbd;"><path d="M25.66 0L4.47 0L4.47-44.81L8.50-44.81L8.50-3.84L25.66-3.84L25.66 0" fill="#222222" stroke="none" stroke-width="none" transform="translate(-109.33001708984375,16.16450850053268)" style="fill: rgb(34, 34, 34);"></path></g><g class="path" style="transform: matrix(1, 0, 0, 1, 0, 0); transform-origin: -67.86px 0.164509px; animation: 1s linear -0.54s infinite normal forwards running bounce-44f890db-e91e-44a7-8700-7dec1db46bbd;"><path d="M52.16-8.78L52.16-8.78L52.16-8.78Q52.16-6.84 51.42-5.13L51.42-5.13L51.42-5.13Q50.69-3.41 49.41-2.13L49.41-2.13L49.41-2.13Q48.13-0.84 46.41-0.11L46.41-0.11L46.41-0.11Q44.69 0.63 42.75 0.63L42.75 0.63L40.19 0.63L40.19 0.63Q38.25 0.63 36.53-0.11L36.53-0.11L36.53-0.11Q34.81-0.84 33.53-2.13L33.53-2.13L33.53-2.13Q32.25-3.41 31.52-5.13L31.52-5.13L31.52-5.13Q30.78-6.84 30.78-8.78L30.78-8.78L30.78-23.22L30.78-23.22Q30.78-25.16 31.52-26.88L31.52-26.88L31.52-26.88Q32.25-28.59 33.53-29.88L33.53-29.88L33.53-29.88Q34.81-31.16 36.53-31.89L36.53-31.89L36.53-31.89Q38.25-32.63 40.19-32.63L40.19-32.63L42.75-32.63L42.75-32.63Q44.69-32.63 46.41-31.89L46.41-31.89L46.41-31.89Q48.13-31.16 49.41-29.88L49.41-29.88L49.41-29.88Q50.69-28.59 51.42-26.88L51.42-26.88L51.42-26.88Q52.16-25.16 52.16-23.22L52.16-23.22L52.16-8.78zM48.31-8.56L48.31-23.44L48.31-23.44Q48.31-24.59 47.88-25.61L47.88-25.61L47.88-25.61Q47.44-26.63 46.69-27.38L46.69-27.38L46.69-27.38Q45.94-28.13 44.92-28.56L44.92-28.56L44.92-28.56Q43.91-29 42.75-29L42.75-29L40.19-29L40.19-29Q39.03-29 38.02-28.56L38.02-28.56L38.02-28.56Q37-28.13 36.25-27.38L36.25-27.38L36.25-27.38Q35.50-26.63 35.06-25.61L35.06-25.61L35.06-25.61Q34.63-24.59 34.63-23.44L34.63-23.44L34.63-8.56L34.63-8.56Q34.63-7.41 35.06-6.39L35.06-6.39L35.06-6.39Q35.50-5.38 36.25-4.63L36.25-4.63L36.25-4.63Q37-3.88 38.02-3.44L38.02-3.44L38.02-3.44Q39.03-3 40.19-3L40.19-3L42.75-3L42.75-3Q43.91-3 44.92-3.44L44.92-3.44L44.92-3.44Q45.94-3.88 46.69-4.63L46.69-4.63L46.69-4.63Q47.44-5.38 47.88-6.39L47.88-6.39L47.88-6.39Q48.31-7.41 48.31-8.56L48.31-8.56" fill="#222222" stroke="none" stroke-width="none" transform="translate(-109.33001708984375,16.16450850053268)" style="fill: rgb(0, 216, 255);"></path></g><g class="path" style="transform: matrix(1, 0, 0, 1, 0, 0); transform-origin: -38.8px 0.164509px; animation: 1s linear -0.48s infinite normal forwards running bounce-44f890db-e91e-44a7-8700-7dec1db46bbd;"><path d="M81.22 0L79.94 0L77.81-3.19L77.81-3.19Q76.50-1.47 74.53-0.42L74.53-0.42L74.53-0.42Q72.56 0.63 70.22 0.63L70.22 0.63L69.25 0.63L69.25 0.63Q67.31 0.63 65.59-0.11L65.59-0.11L65.59-0.11Q63.88-0.84 62.59-2.13L62.59-2.13L62.59-2.13Q61.31-3.41 60.58-5.13L60.58-5.13L60.58-5.13Q59.84-6.84 59.84-8.78L59.84-8.78L59.84-9.09L59.84-9.09Q59.84-11.03 60.58-12.75L60.58-12.75L60.58-12.75Q61.31-14.47 62.59-15.75L62.59-15.75L62.59-15.75Q63.88-17.03 65.59-17.77L65.59-17.77L65.59-17.77Q67.31-18.50 69.25-18.50L69.25-18.50L77.38-18.50L77.38-23.44L77.38-23.44Q77.38-24.59 76.94-25.61L76.94-25.61L76.94-25.61Q76.50-26.63 75.75-27.38L75.75-27.38L75.75-27.38Q75-28.13 73.98-28.56L73.98-28.56L73.98-28.56Q72.97-29 71.81-29L71.81-29L69.56-29L69.56-29Q68.41-29 67.39-28.56L67.39-28.56L67.39-28.56Q66.38-28.13 65.63-27.38L65.63-27.38L65.63-27.38Q64.88-26.63 64.44-25.61L64.44-25.61L64.44-25.61Q64-24.59 64-23.44L64-23.44L64-22.28L60.16-22.91L60.16-23.22L60.16-23.22Q60.16-25.16 60.89-26.88L60.89-26.88L60.89-26.88Q61.63-28.59 62.91-29.88L62.91-29.88L62.91-29.88Q64.19-31.16 65.91-31.89L65.91-31.89L65.91-31.89Q67.63-32.63 69.56-32.63L69.56-32.63L71.81-32.63L71.81-32.63Q73.75-32.63 75.47-31.89L75.47-31.89L75.47-31.89Q77.19-31.16 78.47-29.88L78.47-29.88L78.47-29.88Q79.75-28.59 80.48-26.88L80.48-26.88L80.48-26.88Q81.22-25.16 81.22-23.22L81.22-23.22L81.22 0zM77.38-8.56L77.38-15.50L69.25-15.50L69.25-15.50Q68.09-15.50 67.08-15.06L67.08-15.06L67.08-15.06Q66.06-14.63 65.31-13.86L65.31-13.86L65.31-13.86Q64.56-13.09 64.13-12.08L64.13-12.08L64.13-12.08Q63.69-11.06 63.69-9.91L63.69-9.91L63.69-8.56L63.69-8.56Q63.69-7.41 64.13-6.39L64.13-6.39L64.13-6.39Q64.56-5.38 65.31-4.63L65.31-4.63L65.31-4.63Q66.06-3.88 67.08-3.44L67.08-3.44L67.08-3.44Q68.09-3 69.25-3L69.25-3L71.81-3L71.81-3Q72.97-3 73.98-3.44L73.98-3.44L73.98-3.44Q75-3.88 75.75-4.63L75.75-4.63L75.75-4.63Q76.50-5.38 76.94-6.39L76.94-6.39L76.94-6.39Q77.38-7.41 77.38-8.56L77.38-8.56" fill="#222222" stroke="none" stroke-width="none" transform="translate(-109.33001708984375,16.16450850053268)" style="fill: rgb(34, 34, 34);"></path></g><g class="path" style="transform: matrix(1, 0, 0, 1, 0, 0); transform-origin: -9.73502px -5.92549px; animation: 1s linear -0.42s infinite normal forwards running bounce-44f890db-e91e-44a7-8700-7dec1db46bbd;"><path d="M110.28 0L109 0L106.88-3.25L106.88-3.25Q105.56-1.47 103.59-0.42L103.59-0.42L103.59-0.42Q101.63 0.63 99.28 0.63L99.28 0.63L98.31 0.63L98.31 0.63Q96.38 0.63 94.66-0.11L94.66-0.11L94.66-0.11Q92.94-0.84 91.66-2.13L91.66-2.13L91.66-2.13Q90.38-3.41 89.64-5.13L89.64-5.13L89.64-5.13Q88.91-6.84 88.91-8.78L88.91-8.78L88.91-23.22L88.91-23.22Q88.91-25.16 89.64-26.88L89.64-26.88L89.64-26.88Q90.38-28.59 91.66-29.88L91.66-29.88L91.66-29.88Q92.94-31.16 94.66-31.89L94.66-31.89L94.66-31.89Q96.38-32.63 98.31-32.63L98.31-32.63L99.28-32.63L99.28-32.63Q101.44-32.63 103.28-31.75L103.28-31.75L103.28-31.75Q105.13-30.88 106.44-29.31L106.44-29.31L106.44-44.81L110.28-44.81L110.28 0zM106.44-8.56L106.44-23.44L106.44-23.44Q106.44-24.59 106-25.61L106-25.61L106-25.61Q105.56-26.63 104.81-27.38L104.81-27.38L104.81-27.38Q104.06-28.13 103.05-28.56L103.05-28.56L103.05-28.56Q102.03-29 100.88-29L100.88-29L98.31-29L98.31-29Q97.16-29 96.14-28.56L96.14-28.56L96.14-28.56Q95.13-28.13 94.38-27.38L94.38-27.38L94.38-27.38Q93.63-26.63 93.19-25.61L93.19-25.61L93.19-25.61Q92.75-24.59 92.75-23.44L92.75-23.44L92.75-8.56L92.75-8.56Q92.75-7.41 93.19-6.39L93.19-6.39L93.19-6.39Q93.63-5.38 94.38-4.63L94.38-4.63L94.38-4.63Q95.13-3.88 96.14-3.44L96.14-3.44L96.14-3.44Q97.16-3 98.31-3L98.31-3L100.88-3L100.88-3Q102.03-3 103.05-3.44L103.05-3.44L103.05-3.44Q104.06-3.88 104.81-4.63L104.81-4.63L104.81-4.63Q105.56-5.38 106-6.39L106-6.39L106-6.39Q106.44-7.41 106.44-8.56L106.44-8.56" fill="#222222" stroke="none" stroke-width="none" transform="translate(-109.33001708984375,16.16450850053268)" style="fill: rgb(0, 216, 255);"></path></g><g class="path" style="transform: matrix(1, 0, 0, 1, 0, 0); transform-origin: 11.845px -26.0855px; animation: 1s linear -0.36s infinite normal forwards running bounce-44f890db-e91e-44a7-8700-7dec1db46bbd;"><path d="M123.41-39.69L118.94-39.69L118.94-44.81L123.41-44.81L123.41-39.69" fill="#222222" stroke="none" stroke-width="none" transform="translate(-109.33001708984375,16.16450850053268)" style="fill: rgb(34, 34, 34);"></path></g><g class="path" style="transform: matrix(1, 0, 0, 1, 0, 0); transform-origin: 11.84px 0.164509px; animation: 1s linear -0.3s infinite normal forwards running bounce-44f890db-e91e-44a7-8700-7dec1db46bbd;"><path d="M123.09 0L119.25 0L119.25-32L123.09-32L123.09 0" fill="#222222" stroke="none" stroke-width="none" transform="translate(-109.33001708984375,16.16450850053268)" style="fill: rgb(0, 216, 255);"></path></g><g class="path" style="transform: matrix(1, 0, 0, 1, 0, 0); transform-origin: 33.42px -0.150492px; animation: 1s linear -0.24s infinite normal forwards running bounce-44f890db-e91e-44a7-8700-7dec1db46bbd;"><path d="M153.44 0L149.59 0L149.59-23.44L149.59-23.44Q149.59-24.59 149.16-25.61L149.16-25.61L149.16-25.61Q148.72-26.63 147.97-27.38L147.97-27.38L147.97-27.38Q147.22-28.13 146.20-28.56L146.20-28.56L146.20-28.56Q145.19-29 144.03-29L144.03-29L141.47-29L141.47-29Q140.31-29 139.30-28.56L139.30-28.56L139.30-28.56Q138.28-28.13 137.53-27.38L137.53-27.38L137.53-27.38Q136.78-26.63 136.34-25.61L136.34-25.61L136.34-25.61Q135.91-24.59 135.91-23.44L135.91-23.44L135.91 0L132.06 0L132.06-32L133.34-32L135.44-28.75L135.44-28.75Q136.75-30.53 138.73-31.58L138.73-31.58L138.73-31.58Q140.72-32.63 143.06-32.63L143.06-32.63L144.03-32.63L144.03-32.63Q145.97-32.63 147.69-31.89L147.69-31.89L147.69-31.89Q149.41-31.16 150.69-29.88L150.69-29.88L150.69-29.88Q151.97-28.59 152.70-26.88L152.70-26.88L152.70-26.88Q153.44-25.16 153.44-23.22L153.44-23.22L153.44 0" fill="#222222" stroke="none" stroke-width="none" transform="translate(-109.33001708984375,16.16450850053268)" style="fill: rgb(34, 34, 34);"></path></g><g class="path" style="transform: matrix(1, 0, 0, 1, 0, 0); transform-origin: 62.8px 6.25451px; animation: 1s linear -0.18s infinite normal forwards running bounce-44f890db-e91e-44a7-8700-7dec1db46bbd;"><path d="M182.81 4.03L182.81 4.03L182.81 4.03Q182.81 5.97 182.08 7.59L182.08 7.59L182.08 7.59Q181.34 9.22 180.06 10.38L180.06 10.38L180.06 10.38Q178.78 11.53 177.06 12.17L177.06 12.17L177.06 12.17Q175.34 12.81 173.41 12.81L173.41 12.81L171.81 12.81L171.81 12.81Q169.88 12.81 168.16 12.17L168.16 12.17L168.16 12.17Q166.44 11.53 165.16 10.38L165.16 10.38L165.16 10.38Q163.88 9.22 163.14 7.59L163.14 7.59L163.14 7.59Q162.41 5.97 162.41 4.03L162.41 4.03L162.41 3.91L162.41 3.91Q162.41 2.03 163.09 0.47L163.09 0.47L163.09 0.47Q163.78-1.09 164.97-2.25L164.97-2.25L164.97-2.25Q163.47-3.16 162.58-4.70L162.58-4.70L162.58-4.70Q161.69-6.25 161.69-8.13L161.69-8.13L161.69-8.13Q161.69-9.81 162.41-11.27L162.41-11.27L162.41-11.27Q163.13-12.72 164.38-13.63L164.38-13.63L164.38-13.63Q162.88-14.94 162-16.78L162-16.78L162-16.78Q161.13-18.63 161.13-20.81L161.13-20.81L161.13-23.22L161.13-23.22Q161.13-25.16 161.86-26.88L161.86-26.88L161.86-26.88Q162.59-28.59 163.88-29.88L163.88-29.88L163.88-29.88Q165.16-31.16 166.88-31.89L166.88-31.89L166.88-31.89Q168.59-32.63 170.53-32.63L170.53-32.63L172.13-32.63L172.13-32.63Q174.47-32.63 176.45-31.58L176.45-31.58L176.45-31.58Q178.44-30.53 179.75-28.75L179.75-28.75L181.84-32L183.13-32L183.13-20.81L183.13-20.81Q183.13-18.88 182.39-17.16L182.39-17.16L182.39-17.16Q181.66-15.44 180.38-14.16L180.38-14.16L180.38-14.16Q179.09-12.88 177.38-12.14L177.38-12.14L177.38-12.14Q175.66-11.41 173.72-11.41L173.72-11.41L168.16-11.41L168.16-11.41Q167.50-11.41 166.91-11.14L166.91-11.14L166.91-11.14Q166.31-10.88 165.86-10.44L165.86-10.44L165.86-10.44Q165.41-10 165.16-9.39L165.16-9.39L165.16-9.39Q164.91-8.78 164.91-8.13L164.91-8.13L164.91-8.13Q164.91-7.47 165.16-6.88L165.16-6.88L165.16-6.88Q165.41-6.28 165.86-5.83L165.86-5.83L165.86-5.83Q166.31-5.38 166.91-5.13L166.91-5.13L166.91-5.13Q167.50-4.88 168.16-4.88L168.16-4.88L173.41-4.88L173.41-4.88Q175.34-4.88 177.06-4.23L177.06-4.23L177.06-4.23Q178.78-3.59 180.06-2.44L180.06-2.44L180.06-2.44Q181.34-1.28 182.08 0.34L182.08 0.34L182.08 0.34Q182.81 1.97 182.81 3.91L182.81 3.91L182.81 4.03zM179.31-20.59L179.31-23.44L179.31-23.44Q179.31-24.59 178.88-25.61L178.88-25.61L178.88-25.61Q178.44-26.63 177.67-27.38L177.67-27.38L177.67-27.38Q176.91-28.13 175.89-28.56L175.89-28.56L175.89-28.56Q174.88-29 173.72-29L173.72-29L170.53-29L170.53-29Q169.38-29 168.36-28.56L168.36-28.56L168.36-28.56Q167.34-28.13 166.59-27.38L166.59-27.38L166.59-27.38Q165.84-26.63 165.41-25.61L165.41-25.61L165.41-25.61Q164.97-24.59 164.97-23.44L164.97-23.44L164.97-20.59L164.97-20.59Q164.97-19.44 165.41-18.42L165.41-18.42L165.41-18.42Q165.84-17.41 166.59-16.66L166.59-16.66L166.59-16.66Q167.34-15.91 168.36-15.47L168.36-15.47L168.36-15.47Q169.38-15.03 170.53-15.03L170.53-15.03L173.72-15.03L173.72-15.03Q174.88-15.03 175.89-15.47L175.89-15.47L175.89-15.47Q176.91-15.91 177.67-16.66L177.67-16.66L177.67-16.66Q178.44-17.41 178.88-18.42L178.88-18.42L178.88-18.42Q179.31-19.44 179.31-20.59L179.31-20.59zM179.16 4.22L179.16 3.72L179.16 3.72Q179.16 2.56 178.72 1.64L178.72 1.64L178.72 1.64Q178.28 0.72 177.53 0.09L177.53 0.09L177.53 0.09Q176.78-0.53 175.77-0.88L175.77-0.88L175.77-0.88Q174.75-1.22 173.59-1.22L173.59-1.22L171.63-1.22L171.63-1.22Q170.47-1.22 169.45-0.88L169.45-0.88L169.45-0.88Q168.44-0.53 167.69 0.09L167.69 0.09L167.69 0.09Q166.94 0.72 166.50 1.64L166.50 1.64L166.50 1.64Q166.06 2.56 166.06 3.72L166.06 3.72L166.06 4.22L166.06 4.22Q166.06 5.38 166.50 6.28L166.50 6.28L166.50 6.28Q166.94 7.19 167.69 7.83L167.69 7.83L167.69 7.83Q168.44 8.47 169.45 8.81L169.45 8.81L169.45 8.81Q170.47 9.16 171.63 9.16L171.63 9.16L173.59 9.16L173.59 9.16Q174.75 9.16 175.77 8.81L175.77 8.81L175.77 8.81Q176.78 8.47 177.53 7.83L177.53 7.83L177.53 7.83Q178.28 7.19 178.72 6.28L178.72 6.28L178.72 6.28Q179.16 5.38 179.16 4.22L179.16 4.22" fill="#222222" stroke="none" stroke-width="none" transform="translate(-109.33001708984375,16.16450850053268)" style="fill: rgb(0, 216, 255);"></path></g><g class="path" style="transform: matrix(1, 0, 0, 1, 0, 0); transform-origin: 83.89px 13.7595px; animation: 1s linear -0.12s infinite normal forwards running bounce-44f890db-e91e-44a7-8700-7dec1db46bbd;"><path d="M195.63 0L190.81 0L190.81-4.81L195.63-4.81L195.63 0" fill="#222222" stroke="none" stroke-width="none" transform="translate(-109.33001708984375,16.16450850053268)" style="fill: rgb(34, 34, 34);"></path></g><g class="path" style="transform: matrix(1, 0, 0, 1, 0, 0); transform-origin: 97.64px 13.7595px; animation: 1s linear -0.06s infinite normal forwards running bounce-44f890db-e91e-44a7-8700-7dec1db46bbd;"><path d="M209.38 0L204.56 0L204.56-4.81L209.38-4.81L209.38 0" fill="#222222" stroke="none" stroke-width="none" transform="translate(-109.33001708984375,16.16450850053268)" style="fill: rgb(0, 216, 255);"></path></g><g class="path" style="transform: matrix(1, 0, 0, 1, 0, 0); transform-origin: 111.39px 13.7595px; animation: 1s linear 0s infinite normal forwards running bounce-44f890db-e91e-44a7-8700-7dec1db46bbd;"><path d="M223.13 0L218.31 0L218.31-4.81L223.13-4.81L223.13 0" fill="#222222" stroke="none" stroke-width="none" transform="translate(-109.33001708984375,16.16450850053268)" style="fill: rgb(34, 34, 34);"></path></g></g>
</g>
</g>
<style id="bounce-44f890db-e91e-44a7-8700-7dec1db46bbd" data-anikit="">@keyframes bounce-44f890db-e91e-44a7-8700-7dec1db46bbd
{
  0% {
    animation-timing-function: cubic-bezier(0.1361,0.2514,0.2175,0.8786);
    transform: translate(0,0px) scaleY(1);
  }
  37% {
    animation-timing-function: cubic-bezier(0.7674,0.1844,0.8382,0.7157);
    transform: translate(0,-22.977px) scaleY(1);
  }
  72% {
    animation-timing-function: cubic-bezier(0.0942,0.181,0.1596,0.9408);
    transform: translate(0,0px) scaleY(1);
  }
  87% {
    animation-timing-function: cubic-bezier(0.8073,0.2437,0.8228,0.7005);
    transform: translate(0,6.958px) scaleY(0.503);
  }
  100% {
    transform: translate(0,0px) scaleY(1);
  }
}</style></svg>